<svg xmlns="http://www.w3.org/2000/svg" viewBox="0 0 370 370"><rect fill="#ece4d8" width="370" height="370"/><path fill="#14100d" d="M20,20h10v10h-10zM30,20h10v10h-10zM40,20h10v10h-10zM50,20h10v10h-10zM60,20h10v10h-10zM70,20h10v10h-10zM80,20h10v10h-10zM140,20h10v10h-10zM150,20h10v10h-10zM180,20h10v10h-10zM200,20h10v10h-10zM210,20h10v10h-10zM220,20h10v10h-10zM230,20h10v10h-10zM250,20h10v10h-10zM280,20h10v10h-10zM290,20h10v10h-10zM300,20h10v10h-10zM310,20h10v10h-10zM320,20h10v10h-10zM330,20h10v10h-10zM340,20h10v10h-10zM20,30h10v10h-10zM80,30h10v10h-10zM110,30h10v10h-10zM130,30h10v10h-10zM140,30h10v10h-10zM150,30h10v10h-10zM160,30h10v10h-10zM170,30h10v10h-10zM190,30h10v10h-10zM200,30h10v10h-10zM260,30h10v10h-10zM280,30h10v10h-10zM340,30h10v10h-10zM20,40h10v10h-10zM40,40h10v10h-10zM50,40h10v10h-10zM60,40h10v10h-10zM80,40h10v10h-10zM100,40h10v10h-10zM120,40h10v10h-10zM150,40h10v10h-10zM180,40h10v10h-10zM220,40h10v10h-10zM230,40h10v10h-10zM240,40h10v10h-10zM250,40h10v10h-10zM280,40h10v10h-10zM300,40h10v10h-10zM310,40h10v10h-10zM320,40h10v10h-10zM340,40h10v10h-10zM20,50h10v10h-10zM40,50h10v10h-10zM50,50h10v10h-10zM60,50h10v10h-10zM80,50h10v10h-10zM100,50h10v10h-10zM160,50h10v10h-10zM170,50h10v10h-10zM180,50h10v10h-10zM190,50h10v10h-10zM220,50h10v10h-10zM250,50h10v10h-10zM280,50h10v10h-10zM300,50h10v10h-10zM310,50h10v10h-10zM320,50h10v10h-10zM340,50h10v10h-10zM20,60h10v10h-10zM40,60h10v10h-10zM50,60h10v10h-10zM60,60h10v10h-10zM80,60h10v10h-10zM100,60h10v10h-10zM110,60h10v10h-10zM120,60h10v10h-10zM140,60h10v10h-10zM170,60h10v10h-10zM210,60h10v10h-10zM240,60h10v10h-10zM250,60h10v10h-10zM280,60h10v10h-10zM300,60h10v10h-10zM310,60h10v10h-10zM320,60h10v10h-10zM340,60h10v10h-10zM20,70h10v10h-10zM80,70h10v10h-10zM100,70h10v10h-10zM110,70h10v10h-10zM120,70h10v10h-10zM140,70h10v10h-10zM150,70h10v10h-10zM160,70h10v10h-10zM170,70h10v10h-10zM180,70h10v10h-10zM220,70h10v10h-10zM230,70h10v10h-10zM240,70h10v10h-10zM260,70h10v10h-10zM280,70h10v10h-10zM340,70h10v10h-10zM20,80h10v10h-10zM30,80h10v10h-10zM40,80h10v10h-10zM50,80h10v10h-10zM60,80h10v10h-10zM70,80h10v10h-10zM80,80h10v10h-10zM100,80h10v10h-10zM120,80h10v10h-10zM140,80h10v10h-10zM160,80h10v10h-10zM180,80h10v10h-10zM200,80h10v10h-10zM220,80h10v10h-10zM240,80h10v10h-10zM260,80h10v10h-10zM280,80h10v10h-10zM290,80h10v10h-10zM300,80h10v10h-10zM310,80h10v10h-10zM320,80h10v10h-10zM330,80h10v10h-10zM340,80h10v10h-10zM100,90h10v10h-10zM130,90h10v10h-10zM140,90h10v10h-10zM160,90h10v10h-10zM170,90h10v10h-10zM230,90h10v10h-10zM260,90h10v10h-10zM20,100h10v10h-10zM40,100h10v10h-10zM50,100h10v10h-10zM60,100h10v10h-10zM70,100h10v10h-10zM80,100h10v10h-10zM110,100h10v10h-10zM120,100h10v10h-10zM150,100h10v10h-10zM160,100h10v10h-10zM170,100h10v10h-10zM180,100h10v10h-10zM190,100h10v10h-10zM220,100h10v10h-10zM240,100h10v10h-10zM260,100h10v10h-10zM280,100h10v10h-10zM290,100h10v10h-10zM300,100h10v10h-10zM310,100h10v10h-10zM320,100h10v10h-10zM40,110h10v10h-10zM110,110h10v10h-10zM120,110h10v10h-10zM180,110h10v10h-10zM200,110h10v10h-10zM210,110h10v10h-10zM230,110h10v10h-10zM240,110h10v10h-10zM250,110h10v10h-10zM280,110h10v10h-10zM310,110h10v10h-10zM320,110h10v10h-10zM330,110h10v10h-10zM340,110h10v10h-10zM20,120h10v10h-10zM30,120h10v10h-10zM40,120h10v10h-10zM60,120h10v10h-10zM70,120h10v10h-10zM80,120h10v10h-10zM90,120h10v10h-10zM110,120h10v10h-10zM130,120h10v10h-10zM140,120h10v10h-10zM170,120h10v10h-10zM200,120h10v10h-10zM240,120h10v10h-10zM260,120h10v10h-10zM320,120h10v10h-10zM50,130h10v10h-10zM70,130h10v10h-10zM90,130h10v10h-10zM100,130h10v10h-10zM110,130h10v10h-10zM160,130h10v10h-10zM180,130h10v10h-10zM200,130h10v10h-10zM220,130h10v10h-10zM230,130h10v10h-10zM240,130h10v10h-10zM260,130h10v10h-10zM290,130h10v10h-10zM300,130h10v10h-10zM310,130h10v10h-10zM320,130h10v10h-10zM330,130h10v10h-10zM20,140h10v10h-10zM40,140h10v10h-10zM80,140h10v10h-10zM130,140h10v10h-10zM170,140h10v10h-10zM190,140h10v10h-10zM220,140h10v10h-10zM250,140h10v10h-10zM270,140h10v10h-10zM300,140h10v10h-10zM330,140h10v10h-10zM340,140h10v10h-10zM20,150h10v10h-10zM50,150h10v10h-10zM70,150h10v10h-10zM100,150h10v10h-10zM110,150h10v10h-10zM120,150h10v10h-10zM160,150h10v10h-10zM170,150h10v10h-10zM180,150h10v10h-10zM200,150h10v10h-10zM210,150h10v10h-10zM220,150h10v10h-10zM240,150h10v10h-10zM250,150h10v10h-10zM260,150h10v10h-10zM280,150h10v10h-10zM340,150h10v10h-10zM20,160h10v10h-10zM30,160h10v10h-10zM40,160h10v10h-10zM50,160h10v10h-10zM60,160h10v10h-10zM80,160h10v10h-10zM90,160h10v10h-10zM100,160h10v10h-10zM120,160h10v10h-10zM140,160h10v10h-10zM150,160h10v10h-10zM160,160h10v10h-10zM220,160h10v10h-10zM230,160h10v10h-10zM260,160h10v10h-10zM270,160h10v10h-10zM300,160h10v10h-10zM310,160h10v10h-10zM320,160h10v10h-10zM330,160h10v10h-10zM20,170h10v10h-10zM30,170h10v10h-10zM40,170h10v10h-10zM50,170h10v10h-10zM60,170h10v10h-10zM70,170h10v10h-10zM110,170h10v10h-10zM160,170h10v10h-10zM180,170h10v10h-10zM200,170h10v10h-10zM210,170h10v10h-10zM220,170h10v10h-10zM230,170h10v10h-10zM240,170h10v10h-10zM250,170h10v10h-10zM290,170h10v10h-10zM320,170h10v10h-10zM330,170h10v10h-10zM40,180h10v10h-10zM50,180h10v10h-10zM70,180h10v10h-10zM80,180h10v10h-10zM90,180h10v10h-10zM100,180h10v10h-10zM130,180h10v10h-10zM140,180h10v10h-10zM150,180h10v10h-10zM180,180h10v10h-10zM190,180h10v10h-10zM200,180h10v10h-10zM240,180h10v10h-10zM300,180h10v10h-10zM310,180h10v10h-10zM20,190h10v10h-10zM40,190h10v10h-10zM50,190h10v10h-10zM60,190h10v10h-10zM110,190h10v10h-10zM130,190h10v10h-10zM140,190h10v10h-10zM150,190h10v10h-10zM180,190h10v10h-10zM190,190h10v10h-10zM210,190h10v10h-10zM220,190h10v10h-10zM230,190h10v10h-10zM240,190h10v10h-10zM250,190h10v10h-10zM260,190h10v10h-10zM270,190h10v10h-10zM280,190h10v10h-10zM310,190h10v10h-10zM320,190h10v10h-10zM340,190h10v10h-10zM70,200h10v10h-10zM80,200h10v10h-10zM100,200h10v10h-10zM160,200h10v10h-10zM170,200h10v10h-10zM240,200h10v10h-10zM280,200h10v10h-10zM290,200h10v10h-10zM300,200h10v10h-10zM320,200h10v10h-10zM330,200h10v10h-10zM20,210h10v10h-10zM30,210h10v10h-10zM40,210h10v10h-10zM90,210h10v10h-10zM110,210h10v10h-10zM120,210h10v10h-10zM170,210h10v10h-10zM230,210h10v10h-10zM240,210h10v10h-10zM250,210h10v10h-10zM260,210h10v10h-10zM270,210h10v10h-10zM280,210h10v10h-10zM310,210h10v10h-10zM320,210h10v10h-10zM330,210h10v10h-10zM20,220h10v10h-10zM30,220h10v10h-10zM40,220h10v10h-10zM50,220h10v10h-10zM70,220h10v10h-10zM80,220h10v10h-10zM100,220h10v10h-10zM130,220h10v10h-10zM150,220h10v10h-10zM170,220h10v10h-10zM190,220h10v10h-10zM210,220h10v10h-10zM220,220h10v10h-10zM240,220h10v10h-10zM260,220h10v10h-10zM290,220h10v10h-10zM300,220h10v10h-10zM310,220h10v10h-10zM340,220h10v10h-10zM20,230h10v10h-10zM30,230h10v10h-10zM60,230h10v10h-10zM90,230h10v10h-10zM100,230h10v10h-10zM120,230h10v10h-10zM170,230h10v10h-10zM210,230h10v10h-10zM250,230h10v10h-10zM270,230h10v10h-10zM280,230h10v10h-10zM320,230h10v10h-10zM340,230h10v10h-10zM20,240h10v10h-10zM40,240h10v10h-10zM60,240h10v10h-10zM80,240h10v10h-10zM140,240h10v10h-10zM160,240h10v10h-10zM170,240h10v10h-10zM230,240h10v10h-10zM260,240h10v10h-10zM280,240h10v10h-10zM290,240h10v10h-10zM300,240h10v10h-10zM320,240h10v10h-10zM330,240h10v10h-10zM20,250h10v10h-10zM40,250h10v10h-10zM50,250h10v10h-10zM90,250h10v10h-10zM110,250h10v10h-10zM120,250h10v10h-10zM140,250h10v10h-10zM150,250h10v10h-10zM160,250h10v10h-10zM170,250h10v10h-10zM230,250h10v10h-10zM250,250h10v10h-10zM260,250h10v10h-10zM290,250h10v10h-10zM300,250h10v10h-10zM310,250h10v10h-10zM320,250h10v10h-10zM340,250h10v10h-10zM20,260h10v10h-10zM40,260h10v10h-10zM50,260h10v10h-10zM80,260h10v10h-10zM100,260h10v10h-10zM140,260h10v10h-10zM150,260h10v10h-10zM160,260h10v10h-10zM180,260h10v10h-10zM190,260h10v10h-10zM200,260h10v10h-10zM220,260h10v10h-10zM240,260h10v10h-10zM250,260h10v10h-10zM260,260h10v10h-10zM270,260h10v10h-10zM280,260h10v10h-10zM290,260h10v10h-10zM300,260h10v10h-10zM310,260h10v10h-10zM340,260h10v10h-10zM100,270h10v10h-10zM110,270h10v10h-10zM140,270h10v10h-10zM210,270h10v10h-10zM250,270h10v10h-10zM260,270h10v10h-10zM300,270h10v10h-10zM320,270h10v10h-10zM330,270h10v10h-10zM340,270h10v10h-10zM20,280h10v10h-10zM30,280h10v10h-10zM40,280h10v10h-10zM50,280h10v10h-10zM60,280h10v10h-10zM70,280h10v10h-10zM80,280h10v10h-10zM130,280h10v10h-10zM150,280h10v10h-10zM170,280h10v10h-10zM190,280h10v10h-10zM200,280h10v10h-10zM230,280h10v10h-10zM240,280h10v10h-10zM250,280h10v10h-10zM260,280h10v10h-10zM280,280h10v10h-10zM300,280h10v10h-10zM20,290h10v10h-10zM80,290h10v10h-10zM100,290h10v10h-10zM120,290h10v10h-10zM130,290h10v10h-10zM150,290h10v10h-10zM160,290h10v10h-10zM180,290h10v10h-10zM210,290h10v10h-10zM220,290h10v10h-10zM230,290h10v10h-10zM240,290h10v10h-10zM260,290h10v10h-10zM300,290h10v10h-10zM320,290h10v10h-10zM20,300h10v10h-10zM40,300h10v10h-10zM50,300h10v10h-10zM60,300h10v10h-10zM80,300h10v10h-10zM100,300h10v10h-10zM110,300h10v10h-10zM130,300h10v10h-10zM140,300h10v10h-10zM170,300h10v10h-10zM180,300h10v10h-10zM190,300h10v10h-10zM200,300h10v10h-10zM210,300h10v10h-10zM220,300h10v10h-10zM240,300h10v10h-10zM260,300h10v10h-10zM270,300h10v10h-10zM280,300h10v10h-10zM290,300h10v10h-10zM300,300h10v10h-10zM310,300h10v10h-10zM330,300h10v10h-10zM340,300h10v10h-10zM20,310h10v10h-10zM40,310h10v10h-10zM50,310h10v10h-10zM60,310h10v10h-10zM80,310h10v10h-10zM100,310h10v10h-10zM110,310h10v10h-10zM120,310h10v10h-10zM140,310h10v10h-10zM190,310h10v10h-10zM210,310h10v10h-10zM230,310h10v10h-10zM260,310h10v10h-10zM270,310h10v10h-10zM300,310h10v10h-10zM320,310h10v10h-10zM330,310h10v10h-10zM340,310h10v10h-10zM20,320h10v10h-10zM40,320h10v10h-10zM50,320h10v10h-10zM60,320h10v10h-10zM80,320h10v10h-10zM100,320h10v10h-10zM110,320h10v10h-10zM120,320h10v10h-10zM130,320h10v10h-10zM170,320h10v10h-10zM200,320h10v10h-10zM240,320h10v10h-10zM260,320h10v10h-10zM270,320h10v10h-10zM280,320h10v10h-10zM320,320h10v10h-10zM20,330h10v10h-10zM80,330h10v10h-10zM110,330h10v10h-10zM120,330h10v10h-10zM170,330h10v10h-10zM210,330h10v10h-10zM220,330h10v10h-10zM230,330h10v10h-10zM250,330h10v10h-10zM270,330h10v10h-10zM310,330h10v10h-10zM320,330h10v10h-10zM20,340h10v10h-10zM30,340h10v10h-10zM40,340h10v10h-10zM50,340h10v10h-10zM60,340h10v10h-10zM70,340h10v10h-10zM80,340h10v10h-10zM100,340h10v10h-10zM110,340h10v10h-10zM120,340h10v10h-10zM130,340h10v10h-10zM160,340h10v10h-10zM180,340h10v10h-10zM190,340h10v10h-10zM200,340h10v10h-10zM240,340h10v10h-10zM250,340h10v10h-10zM260,340h10v10h-10zM270,340h10v10h-10zM280,340h10v10h-10zM290,340h10v10h-10zM330,340h10v10h-10z"/></svg>