<svg xmlns="http://www.w3.org/2000/svg" viewBox="0 0 330 330"><rect fill="#ece4d8" width="330" height="330"/><path fill="#14100d" d="M20,20h10v10h-10zM30,20h10v10h-10zM40,20h10v10h-10zM50,20h10v10h-10zM60,20h10v10h-10zM70,20h10v10h-10zM80,20h10v10h-10zM100,20h10v10h-10zM120,20h10v10h-10zM130,20h10v10h-10zM150,20h10v10h-10zM160,20h10v10h-10zM190,20h10v10h-10zM200,20h10v10h-10zM240,20h10v10h-10zM250,20h10v10h-10zM260,20h10v10h-10zM270,20h10v10h-10zM280,20h10v10h-10zM290,20h10v10h-10zM300,20h10v10h-10zM20,30h10v10h-10zM80,30h10v10h-10zM100,30h10v10h-10zM110,30h10v10h-10zM130,30h10v10h-10zM140,30h10v10h-10zM150,30h10v10h-10zM160,30h10v10h-10zM180,30h10v10h-10zM200,30h10v10h-10zM240,30h10v10h-10zM300,30h10v10h-10zM20,40h10v10h-10zM40,40h10v10h-10zM50,40h10v10h-10zM60,40h10v10h-10zM80,40h10v10h-10zM100,40h10v10h-10zM110,40h10v10h-10zM160,40h10v10h-10zM170,40h10v10h-10zM210,40h10v10h-10zM220,40h10v10h-10zM240,40h10v10h-10zM260,40h10v10h-10zM270,40h10v10h-10zM280,40h10v10h-10zM300,40h10v10h-10zM20,50h10v10h-10zM40,50h10v10h-10zM50,50h10v10h-10zM60,50h10v10h-10zM80,50h10v10h-10zM110,50h10v10h-10zM130,50h10v10h-10zM140,50h10v10h-10zM150,50h10v10h-10zM240,50h10v10h-10zM260,50h10v10h-10zM270,50h10v10h-10zM280,50h10v10h-10zM300,50h10v10h-10zM20,60h10v10h-10zM40,60h10v10h-10zM50,60h10v10h-10zM60,60h10v10h-10zM80,60h10v10h-10zM100,60h10v10h-10zM110,60h10v10h-10zM140,60h10v10h-10zM160,60h10v10h-10zM170,60h10v10h-10zM180,60h10v10h-10zM210,60h10v10h-10zM220,60h10v10h-10zM240,60h10v10h-10zM260,60h10v10h-10zM270,60h10v10h-10zM280,60h10v10h-10zM300,60h10v10h-10zM20,70h10v10h-10zM80,70h10v10h-10zM160,70h10v10h-10zM170,70h10v10h-10zM200,70h10v10h-10zM240,70h10v10h-10zM300,70h10v10h-10zM20,80h10v10h-10zM30,80h10v10h-10zM40,80h10v10h-10zM50,80h10v10h-10zM60,80h10v10h-10zM70,80h10v10h-10zM80,80h10v10h-10zM100,80h10v10h-10zM120,80h10v10h-10zM140,80h10v10h-10zM160,80h10v10h-10zM180,80h10v10h-10zM200,80h10v10h-10zM220,80h10v10h-10zM240,80h10v10h-10zM250,80h10v10h-10zM260,80h10v10h-10zM270,80h10v10h-10zM280,80h10v10h-10zM290,80h10v10h-10zM300,80h10v10h-10zM110,90h10v10h-10zM150,90h10v10h-10zM160,90h10v10h-10zM180,90h10v10h-10zM190,90h10v10h-10zM210,90h10v10h-10zM220,90h10v10h-10zM20,100h10v10h-10zM50,100h10v10h-10zM60,100h10v10h-10zM70,100h10v10h-10zM80,100h10v10h-10zM90,100h10v10h-10zM100,100h10v10h-10zM110,100h10v10h-10zM130,100h10v10h-10zM140,100h10v10h-10zM150,100h10v10h-10zM160,100h10v10h-10zM170,100h10v10h-10zM230,100h10v10h-10zM260,100h10v10h-10zM280,100h10v10h-10zM290,100h10v10h-10zM300,100h10v10h-10zM40,110h10v10h-10zM50,110h10v10h-10zM60,110h10v10h-10zM90,110h10v10h-10zM110,110h10v10h-10zM120,110h10v10h-10zM130,110h10v10h-10zM140,110h10v10h-10zM160,110h10v10h-10zM180,110h10v10h-10zM230,110h10v10h-10zM240,110h10v10h-10zM250,110h10v10h-10zM280,110h10v10h-10zM300,110h10v10h-10zM40,120h10v10h-10zM50,120h10v10h-10zM80,120h10v10h-10zM90,120h10v10h-10zM100,120h10v10h-10zM110,120h10v10h-10zM130,120h10v10h-10zM160,120h10v10h-10zM170,120h10v10h-10zM210,120h10v10h-10zM230,120h10v10h-10zM240,120h10v10h-10zM270,120h10v10h-10zM280,120h10v10h-10zM290,120h10v10h-10zM300,120h10v10h-10zM50,130h10v10h-10zM60,130h10v10h-10zM90,130h10v10h-10zM120,130h10v10h-10zM140,130h10v10h-10zM150,130h10v10h-10zM180,130h10v10h-10zM190,130h10v10h-10zM210,130h10v10h-10zM230,130h10v10h-10zM240,130h10v10h-10zM270,130h10v10h-10zM30,140h10v10h-10zM40,140h10v10h-10zM60,140h10v10h-10zM80,140h10v10h-10zM110,140h10v10h-10zM120,140h10v10h-10zM130,140h10v10h-10zM150,140h10v10h-10zM170,140h10v10h-10zM200,140h10v10h-10zM220,140h10v10h-10zM250,140h10v10h-10zM260,140h10v10h-10zM270,140h10v10h-10zM300,140h10v10h-10zM20,150h10v10h-10zM30,150h10v10h-10zM40,150h10v10h-10zM50,150h10v10h-10zM60,150h10v10h-10zM90,150h10v10h-10zM120,150h10v10h-10zM130,150h10v10h-10zM140,150h10v10h-10zM160,150h10v10h-10zM180,150h10v10h-10zM190,150h10v10h-10zM200,150h10v10h-10zM210,150h10v10h-10zM220,150h10v10h-10zM270,150h10v10h-10zM280,150h10v10h-10zM290,150h10v10h-10zM30,160h10v10h-10zM40,160h10v10h-10zM60,160h10v10h-10zM80,160h10v10h-10zM90,160h10v10h-10zM100,160h10v10h-10zM110,160h10v10h-10zM170,160h10v10h-10zM180,160h10v10h-10zM190,160h10v10h-10zM200,160h10v10h-10zM220,160h10v10h-10zM230,160h10v10h-10zM240,160h10v10h-10zM260,160h10v10h-10zM290,160h10v10h-10zM20,170h10v10h-10zM40,170h10v10h-10zM50,170h10v10h-10zM60,170h10v10h-10zM110,170h10v10h-10zM140,170h10v10h-10zM160,170h10v10h-10zM170,170h10v10h-10zM180,170h10v10h-10zM190,170h10v10h-10zM210,170h10v10h-10zM250,170h10v10h-10zM260,170h10v10h-10zM280,170h10v10h-10zM290,170h10v10h-10zM300,170h10v10h-10zM50,180h10v10h-10zM80,180h10v10h-10zM100,180h10v10h-10zM130,180h10v10h-10zM160,180h10v10h-10zM170,180h10v10h-10zM180,180h10v10h-10zM190,180h10v10h-10zM210,180h10v10h-10zM240,180h10v10h-10zM250,180h10v10h-10zM260,180h10v10h-10zM270,180h10v10h-10zM290,180h10v10h-10zM300,180h10v10h-10zM20,190h10v10h-10zM40,190h10v10h-10zM60,190h10v10h-10zM70,190h10v10h-10zM110,190h10v10h-10zM130,190h10v10h-10zM140,190h10v10h-10zM150,190h10v10h-10zM180,190h10v10h-10zM230,190h10v10h-10zM280,190h10v10h-10zM290,190h10v10h-10zM300,190h10v10h-10zM20,200h10v10h-10zM30,200h10v10h-10zM40,200h10v10h-10zM50,200h10v10h-10zM60,200h10v10h-10zM80,200h10v10h-10zM100,200h10v10h-10zM140,200h10v10h-10zM170,200h10v10h-10zM180,200h10v10h-10zM200,200h10v10h-10zM210,200h10v10h-10zM230,200h10v10h-10zM240,200h10v10h-10zM250,200h10v10h-10zM290,200h10v10h-10zM20,210h10v10h-10zM30,210h10v10h-10zM110,210h10v10h-10zM120,210h10v10h-10zM130,210h10v10h-10zM160,210h10v10h-10zM170,210h10v10h-10zM180,210h10v10h-10zM210,210h10v10h-10zM220,210h10v10h-10zM260,210h10v10h-10zM290,210h10v10h-10zM20,220h10v10h-10zM30,220h10v10h-10zM40,220h10v10h-10zM50,220h10v10h-10zM60,220h10v10h-10zM70,220h10v10h-10zM80,220h10v10h-10zM90,220h10v10h-10zM110,220h10v10h-10zM120,220h10v10h-10zM140,220h10v10h-10zM150,220h10v10h-10zM160,220h10v10h-10zM170,220h10v10h-10zM200,220h10v10h-10zM220,220h10v10h-10zM230,220h10v10h-10zM240,220h10v10h-10zM250,220h10v10h-10zM260,220h10v10h-10zM270,220h10v10h-10zM300,220h10v10h-10zM100,230h10v10h-10zM110,230h10v10h-10zM140,230h10v10h-10zM160,230h10v10h-10zM170,230h10v10h-10zM190,230h10v10h-10zM210,230h10v10h-10zM220,230h10v10h-10zM260,230h10v10h-10zM20,240h10v10h-10zM30,240h10v10h-10zM40,240h10v10h-10zM50,240h10v10h-10zM60,240h10v10h-10zM70,240h10v10h-10zM80,240h10v10h-10zM100,240h10v10h-10zM110,240h10v10h-10zM120,240h10v10h-10zM130,240h10v10h-10zM140,240h10v10h-10zM160,240h10v10h-10zM180,240h10v10h-10zM190,240h10v10h-10zM210,240h10v10h-10zM220,240h10v10h-10zM240,240h10v10h-10zM260,240h10v10h-10zM280,240h10v10h-10zM290,240h10v10h-10zM20,250h10v10h-10zM80,250h10v10h-10zM100,250h10v10h-10zM110,250h10v10h-10zM130,250h10v10h-10zM160,250h10v10h-10zM180,250h10v10h-10zM200,250h10v10h-10zM210,250h10v10h-10zM220,250h10v10h-10zM260,250h10v10h-10zM280,250h10v10h-10zM290,250h10v10h-10zM300,250h10v10h-10zM20,260h10v10h-10zM40,260h10v10h-10zM50,260h10v10h-10zM60,260h10v10h-10zM80,260h10v10h-10zM100,260h10v10h-10zM130,260h10v10h-10zM150,260h10v10h-10zM160,260h10v10h-10zM180,260h10v10h-10zM190,260h10v10h-10zM200,260h10v10h-10zM220,260h10v10h-10zM230,260h10v10h-10zM240,260h10v10h-10zM250,260h10v10h-10zM260,260h10v10h-10zM280,260h10v10h-10zM20,270h10v10h-10zM40,270h10v10h-10zM50,270h10v10h-10zM60,270h10v10h-10zM80,270h10v10h-10zM100,270h10v10h-10zM120,270h10v10h-10zM130,270h10v10h-10zM150,270h10v10h-10zM180,270h10v10h-10zM200,270h10v10h-10zM240,270h10v10h-10zM250,270h10v10h-10zM290,270h10v10h-10zM20,280h10v10h-10zM40,280h10v10h-10zM50,280h10v10h-10zM60,280h10v10h-10zM80,280h10v10h-10zM110,280h10v10h-10zM140,280h10v10h-10zM160,280h10v10h-10zM170,280h10v10h-10zM180,280h10v10h-10zM190,280h10v10h-10zM200,280h10v10h-10zM210,280h10v10h-10zM220,280h10v10h-10zM230,280h10v10h-10zM240,280h10v10h-10zM250,280h10v10h-10zM260,280h10v10h-10zM270,280h10v10h-10zM290,280h10v10h-10zM300,280h10v10h-10zM20,290h10v10h-10zM80,290h10v10h-10zM130,290h10v10h-10zM140,290h10v10h-10zM150,290h10v10h-10zM180,290h10v10h-10zM190,290h10v10h-10zM200,290h10v10h-10zM210,290h10v10h-10zM220,290h10v10h-10zM240,290h10v10h-10zM260,290h10v10h-10zM270,290h10v10h-10zM280,290h10v10h-10zM20,300h10v10h-10zM30,300h10v10h-10zM40,300h10v10h-10zM50,300h10v10h-10zM60,300h10v10h-10zM70,300h10v10h-10zM80,300h10v10h-10zM100,300h10v10h-10zM110,300h10v10h-10zM160,300h10v10h-10zM170,300h10v10h-10zM200,300h10v10h-10zM210,300h10v10h-10zM220,300h10v10h-10zM240,300h10v10h-10zM280,300h10v10h-10zM290,300h10v10h-10z"/></svg>