<svg xmlns="http://www.w3.org/2000/svg" viewBox="0 0 330 330"><rect fill="#ece4d8" width="330" height="330"/><path fill="#14100d" d="M20,20h10v10h-10zM30,20h10v10h-10zM40,20h10v10h-10zM50,20h10v10h-10zM60,20h10v10h-10zM70,20h10v10h-10zM80,20h10v10h-10zM100,20h10v10h-10zM110,20h10v10h-10zM120,20h10v10h-10zM140,20h10v10h-10zM150,20h10v10h-10zM160,20h10v10h-10zM170,20h10v10h-10zM190,20h10v10h-10zM200,20h10v10h-10zM210,20h10v10h-10zM220,20h10v10h-10zM240,20h10v10h-10zM250,20h10v10h-10zM260,20h10v10h-10zM270,20h10v10h-10zM280,20h10v10h-10zM290,20h10v10h-10zM300,20h10v10h-10zM20,30h10v10h-10zM80,30h10v10h-10zM100,30h10v10h-10zM110,30h10v10h-10zM120,30h10v10h-10zM130,30h10v10h-10zM140,30h10v10h-10zM150,30h10v10h-10zM180,30h10v10h-10zM220,30h10v10h-10zM240,30h10v10h-10zM300,30h10v10h-10zM20,40h10v10h-10zM40,40h10v10h-10zM50,40h10v10h-10zM60,40h10v10h-10zM80,40h10v10h-10zM140,40h10v10h-10zM180,40h10v10h-10zM210,40h10v10h-10zM240,40h10v10h-10zM260,40h10v10h-10zM270,40h10v10h-10zM280,40h10v10h-10zM300,40h10v10h-10zM20,50h10v10h-10zM40,50h10v10h-10zM50,50h10v10h-10zM60,50h10v10h-10zM80,50h10v10h-10zM100,50h10v10h-10zM110,50h10v10h-10zM140,50h10v10h-10zM160,50h10v10h-10zM170,50h10v10h-10zM190,50h10v10h-10zM200,50h10v10h-10zM210,50h10v10h-10zM240,50h10v10h-10zM260,50h10v10h-10zM270,50h10v10h-10zM280,50h10v10h-10zM300,50h10v10h-10zM20,60h10v10h-10zM40,60h10v10h-10zM50,60h10v10h-10zM60,60h10v10h-10zM80,60h10v10h-10zM120,60h10v10h-10zM130,60h10v10h-10zM160,60h10v10h-10zM180,60h10v10h-10zM190,60h10v10h-10zM200,60h10v10h-10zM240,60h10v10h-10zM260,60h10v10h-10zM270,60h10v10h-10zM280,60h10v10h-10zM300,60h10v10h-10zM20,70h10v10h-10zM80,70h10v10h-10zM120,70h10v10h-10zM140,70h10v10h-10zM150,70h10v10h-10zM170,70h10v10h-10zM180,70h10v10h-10zM190,70h10v10h-10zM210,70h10v10h-10zM240,70h10v10h-10zM300,70h10v10h-10zM20,80h10v10h-10zM30,80h10v10h-10zM40,80h10v10h-10zM50,80h10v10h-10zM60,80h10v10h-10zM70,80h10v10h-10zM80,80h10v10h-10zM100,80h10v10h-10zM120,80h10v10h-10zM140,80h10v10h-10zM160,80h10v10h-10zM180,80h10v10h-10zM200,80h10v10h-10zM220,80h10v10h-10zM240,80h10v10h-10zM250,80h10v10h-10zM260,80h10v10h-10zM270,80h10v10h-10zM280,80h10v10h-10zM290,80h10v10h-10zM300,80h10v10h-10zM100,90h10v10h-10zM170,90h10v10h-10zM180,90h10v10h-10zM190,90h10v10h-10zM20,100h10v10h-10zM40,100h10v10h-10zM50,100h10v10h-10zM70,100h10v10h-10zM80,100h10v10h-10zM90,100h10v10h-10zM110,100h10v10h-10zM120,100h10v10h-10zM140,100h10v10h-10zM150,100h10v10h-10zM170,100h10v10h-10zM180,100h10v10h-10zM190,100h10v10h-10zM210,100h10v10h-10zM220,100h10v10h-10zM240,100h10v10h-10zM270,100h10v10h-10zM290,100h10v10h-10zM300,100h10v10h-10zM30,110h10v10h-10zM50,110h10v10h-10zM60,110h10v10h-10zM100,110h10v10h-10zM120,110h10v10h-10zM150,110h10v10h-10zM160,110h10v10h-10zM170,110h10v10h-10zM220,110h10v10h-10zM230,110h10v10h-10zM250,110h10v10h-10zM260,110h10v10h-10zM270,110h10v10h-10zM280,110h10v10h-10zM290,110h10v10h-10zM30,120h10v10h-10zM50,120h10v10h-10zM60,120h10v10h-10zM70,120h10v10h-10zM80,120h10v10h-10zM100,120h10v10h-10zM150,120h10v10h-10zM230,120h10v10h-10zM280,120h10v10h-10zM290,120h10v10h-10zM20,130h10v10h-10zM40,130h10v10h-10zM50,130h10v10h-10zM60,130h10v10h-10zM90,130h10v10h-10zM100,130h10v10h-10zM110,130h10v10h-10zM130,130h10v10h-10zM200,130h10v10h-10zM290,130h10v10h-10zM300,130h10v10h-10zM20,140h10v10h-10zM30,140h10v10h-10zM40,140h10v10h-10zM80,140h10v10h-10zM90,140h10v10h-10zM120,140h10v10h-10zM130,140h10v10h-10zM160,140h10v10h-10zM170,140h10v10h-10zM190,140h10v10h-10zM230,140h10v10h-10zM250,140h10v10h-10zM260,140h10v10h-10zM270,140h10v10h-10zM280,140h10v10h-10zM290,140h10v10h-10zM30,150h10v10h-10zM100,150h10v10h-10zM110,150h10v10h-10zM140,150h10v10h-10zM160,150h10v10h-10zM180,150h10v10h-10zM190,150h10v10h-10zM230,150h10v10h-10zM240,150h10v10h-10zM280,150h10v10h-10zM290,150h10v10h-10zM300,150h10v10h-10zM20,160h10v10h-10zM60,160h10v10h-10zM70,160h10v10h-10zM80,160h10v10h-10zM100,160h10v10h-10zM120,160h10v10h-10zM150,160h10v10h-10zM190,160h10v10h-10zM200,160h10v10h-10zM210,160h10v10h-10zM220,160h10v10h-10zM260,160h10v10h-10zM270,160h10v10h-10zM280,160h10v10h-10zM300,160h10v10h-10zM20,170h10v10h-10zM50,170h10v10h-10zM60,170h10v10h-10zM90,170h10v10h-10zM100,170h10v10h-10zM110,170h10v10h-10zM130,170h10v10h-10zM160,170h10v10h-10zM200,170h10v10h-10zM210,170h10v10h-10zM250,170h10v10h-10zM260,170h10v10h-10zM270,170h10v10h-10zM290,170h10v10h-10zM30,180h10v10h-10zM70,180h10v10h-10zM80,180h10v10h-10zM100,180h10v10h-10zM110,180h10v10h-10zM120,180h10v10h-10zM130,180h10v10h-10zM140,180h10v10h-10zM160,180h10v10h-10zM180,180h10v10h-10zM190,180h10v10h-10zM200,180h10v10h-10zM220,180h10v10h-10zM230,180h10v10h-10zM250,180h10v10h-10zM270,180h10v10h-10zM290,180h10v10h-10zM40,190h10v10h-10zM50,190h10v10h-10zM90,190h10v10h-10zM110,190h10v10h-10zM120,190h10v10h-10zM160,190h10v10h-10zM170,190h10v10h-10zM180,190h10v10h-10zM220,190h10v10h-10zM250,190h10v10h-10zM290,190h10v10h-10zM20,200h10v10h-10zM80,200h10v10h-10zM90,200h10v10h-10zM100,200h10v10h-10zM110,200h10v10h-10zM140,200h10v10h-10zM150,200h10v10h-10zM160,200h10v10h-10zM170,200h10v10h-10zM190,200h10v10h-10zM230,200h10v10h-10zM270,200h10v10h-10zM290,200h10v10h-10zM40,210h10v10h-10zM50,210h10v10h-10zM60,210h10v10h-10zM100,210h10v10h-10zM110,210h10v10h-10zM150,210h10v10h-10zM160,210h10v10h-10zM180,210h10v10h-10zM190,210h10v10h-10zM210,210h10v10h-10zM230,210h10v10h-10zM240,210h10v10h-10zM270,210h10v10h-10zM280,210h10v10h-10zM290,210h10v10h-10zM30,220h10v10h-10zM70,220h10v10h-10zM80,220h10v10h-10zM100,220h10v10h-10zM130,220h10v10h-10zM140,220h10v10h-10zM150,220h10v10h-10zM160,220h10v10h-10zM170,220h10v10h-10zM180,220h10v10h-10zM190,220h10v10h-10zM200,220h10v10h-10zM210,220h10v10h-10zM220,220h10v10h-10zM230,220h10v10h-10zM240,220h10v10h-10zM250,220h10v10h-10zM260,220h10v10h-10zM280,220h10v10h-10zM300,220h10v10h-10zM100,230h10v10h-10zM110,230h10v10h-10zM120,230h10v10h-10zM130,230h10v10h-10zM140,230h10v10h-10zM170,230h10v10h-10zM180,230h10v10h-10zM210,230h10v10h-10zM220,230h10v10h-10zM260,230h10v10h-10zM300,230h10v10h-10zM20,240h10v10h-10zM30,240h10v10h-10zM40,240h10v10h-10zM50,240h10v10h-10zM60,240h10v10h-10zM70,240h10v10h-10zM80,240h10v10h-10zM100,240h10v10h-10zM120,240h10v10h-10zM130,240h10v10h-10zM140,240h10v10h-10zM160,240h10v10h-10zM180,240h10v10h-10zM190,240h10v10h-10zM200,240h10v10h-10zM220,240h10v10h-10zM240,240h10v10h-10zM260,240h10v10h-10zM20,250h10v10h-10zM80,250h10v10h-10zM100,250h10v10h-10zM120,250h10v10h-10zM140,250h10v10h-10zM150,250h10v10h-10zM160,250h10v10h-10zM170,250h10v10h-10zM200,250h10v10h-10zM220,250h10v10h-10zM260,250h10v10h-10zM20,260h10v10h-10zM40,260h10v10h-10zM50,260h10v10h-10zM60,260h10v10h-10zM80,260h10v10h-10zM110,260h10v10h-10zM170,260h10v10h-10zM220,260h10v10h-10zM230,260h10v10h-10zM240,260h10v10h-10zM250,260h10v10h-10zM260,260h10v10h-10zM270,260h10v10h-10zM280,260h10v10h-10zM290,260h10v10h-10zM20,270h10v10h-10zM40,270h10v10h-10zM50,270h10v10h-10zM60,270h10v10h-10zM80,270h10v10h-10zM100,270h10v10h-10zM110,270h10v10h-10zM150,270h10v10h-10zM170,270h10v10h-10zM180,270h10v10h-10zM210,270h10v10h-10zM230,270h10v10h-10zM250,270h10v10h-10zM300,270h10v10h-10zM20,280h10v10h-10zM40,280h10v10h-10zM50,280h10v10h-10zM60,280h10v10h-10zM80,280h10v10h-10zM100,280h10v10h-10zM110,280h10v10h-10zM150,280h10v10h-10zM180,280h10v10h-10zM190,280h10v10h-10zM220,280h10v10h-10zM240,280h10v10h-10zM250,280h10v10h-10zM270,280h10v10h-10zM300,280h10v10h-10zM20,290h10v10h-10zM80,290h10v10h-10zM140,290h10v10h-10zM180,290h10v10h-10zM220,290h10v10h-10zM240,290h10v10h-10zM250,290h10v10h-10zM260,290h10v10h-10zM270,290h10v10h-10zM290,290h10v10h-10zM20,300h10v10h-10zM30,300h10v10h-10zM40,300h10v10h-10zM50,300h10v10h-10zM60,300h10v10h-10zM70,300h10v10h-10zM80,300h10v10h-10zM100,300h10v10h-10zM110,300h10v10h-10zM140,300h10v10h-10zM200,300h10v10h-10zM210,300h10v10h-10zM220,300h10v10h-10zM270,300h10v10h-10zM280,300h10v10h-10zM290,300h10v10h-10z"/></svg>