<svg xmlns="http://www.w3.org/2000/svg" viewBox="0 0 370 370"><rect fill="#ece4d8" width="370" height="370"/><path fill="#14100d" d="M20,20h10v10h-10zM30,20h10v10h-10zM40,20h10v10h-10zM50,20h10v10h-10zM60,20h10v10h-10zM70,20h10v10h-10zM80,20h10v10h-10zM140,20h10v10h-10zM150,20h10v10h-10zM160,20h10v10h-10zM180,20h10v10h-10zM190,20h10v10h-10zM200,20h10v10h-10zM210,20h10v10h-10zM220,20h10v10h-10zM250,20h10v10h-10zM280,20h10v10h-10zM290,20h10v10h-10zM300,20h10v10h-10zM310,20h10v10h-10zM320,20h10v10h-10zM330,20h10v10h-10zM340,20h10v10h-10zM20,30h10v10h-10zM80,30h10v10h-10zM130,30h10v10h-10zM140,30h10v10h-10zM150,30h10v10h-10zM160,30h10v10h-10zM170,30h10v10h-10zM180,30h10v10h-10zM190,30h10v10h-10zM240,30h10v10h-10zM260,30h10v10h-10zM280,30h10v10h-10zM340,30h10v10h-10zM20,40h10v10h-10zM40,40h10v10h-10zM50,40h10v10h-10zM60,40h10v10h-10zM80,40h10v10h-10zM100,40h10v10h-10zM140,40h10v10h-10zM150,40h10v10h-10zM170,40h10v10h-10zM190,40h10v10h-10zM200,40h10v10h-10zM210,40h10v10h-10zM280,40h10v10h-10zM300,40h10v10h-10zM310,40h10v10h-10zM320,40h10v10h-10zM340,40h10v10h-10zM20,50h10v10h-10zM40,50h10v10h-10zM50,50h10v10h-10zM60,50h10v10h-10zM80,50h10v10h-10zM100,50h10v10h-10zM110,50h10v10h-10zM130,50h10v10h-10zM160,50h10v10h-10zM170,50h10v10h-10zM180,50h10v10h-10zM210,50h10v10h-10zM220,50h10v10h-10zM230,50h10v10h-10zM240,50h10v10h-10zM250,50h10v10h-10zM260,50h10v10h-10zM280,50h10v10h-10zM300,50h10v10h-10zM310,50h10v10h-10zM320,50h10v10h-10zM340,50h10v10h-10zM20,60h10v10h-10zM40,60h10v10h-10zM50,60h10v10h-10zM60,60h10v10h-10zM80,60h10v10h-10zM100,60h10v10h-10zM110,60h10v10h-10zM120,60h10v10h-10zM170,60h10v10h-10zM190,60h10v10h-10zM200,60h10v10h-10zM260,60h10v10h-10zM280,60h10v10h-10zM300,60h10v10h-10zM310,60h10v10h-10zM320,60h10v10h-10zM340,60h10v10h-10zM20,70h10v10h-10zM80,70h10v10h-10zM100,70h10v10h-10zM110,70h10v10h-10zM120,70h10v10h-10zM130,70h10v10h-10zM150,70h10v10h-10zM170,70h10v10h-10zM180,70h10v10h-10zM190,70h10v10h-10zM220,70h10v10h-10zM260,70h10v10h-10zM280,70h10v10h-10zM340,70h10v10h-10zM20,80h10v10h-10zM30,80h10v10h-10zM40,80h10v10h-10zM50,80h10v10h-10zM60,80h10v10h-10zM70,80h10v10h-10zM80,80h10v10h-10zM100,80h10v10h-10zM120,80h10v10h-10zM140,80h10v10h-10zM160,80h10v10h-10zM180,80h10v10h-10zM200,80h10v10h-10zM220,80h10v10h-10zM240,80h10v10h-10zM260,80h10v10h-10zM280,80h10v10h-10zM290,80h10v10h-10zM300,80h10v10h-10zM310,80h10v10h-10zM320,80h10v10h-10zM330,80h10v10h-10zM340,80h10v10h-10zM100,90h10v10h-10zM140,90h10v10h-10zM170,90h10v10h-10zM200,90h10v10h-10zM230,90h10v10h-10zM250,90h10v10h-10zM260,90h10v10h-10zM20,100h10v10h-10zM40,100h10v10h-10zM50,100h10v10h-10zM60,100h10v10h-10zM70,100h10v10h-10zM80,100h10v10h-10zM120,100h10v10h-10zM150,100h10v10h-10zM160,100h10v10h-10zM170,100h10v10h-10zM220,100h10v10h-10zM260,100h10v10h-10zM280,100h10v10h-10zM290,100h10v10h-10zM300,100h10v10h-10zM310,100h10v10h-10zM320,100h10v10h-10zM40,110h10v10h-10zM50,110h10v10h-10zM60,110h10v10h-10zM90,110h10v10h-10zM110,110h10v10h-10zM140,110h10v10h-10zM160,110h10v10h-10zM180,110h10v10h-10zM200,110h10v10h-10zM220,110h10v10h-10zM230,110h10v10h-10zM240,110h10v10h-10zM280,110h10v10h-10zM320,110h10v10h-10zM330,110h10v10h-10zM340,110h10v10h-10zM20,120h10v10h-10zM30,120h10v10h-10zM50,120h10v10h-10zM80,120h10v10h-10zM90,120h10v10h-10zM140,120h10v10h-10zM170,120h10v10h-10zM180,120h10v10h-10zM200,120h10v10h-10zM230,120h10v10h-10zM260,120h10v10h-10zM270,120h10v10h-10zM70,130h10v10h-10zM120,130h10v10h-10zM140,130h10v10h-10zM160,130h10v10h-10zM230,130h10v10h-10zM240,130h10v10h-10zM250,130h10v10h-10zM290,130h10v10h-10zM320,130h10v10h-10zM330,130h10v10h-10zM20,140h10v10h-10zM30,140h10v10h-10zM40,140h10v10h-10zM60,140h10v10h-10zM80,140h10v10h-10zM90,140h10v10h-10zM100,140h10v10h-10zM120,140h10v10h-10zM130,140h10v10h-10zM140,140h10v10h-10zM170,140h10v10h-10zM200,140h10v10h-10zM210,140h10v10h-10zM230,140h10v10h-10zM250,140h10v10h-10zM260,140h10v10h-10zM270,140h10v10h-10zM300,140h10v10h-10zM310,140h10v10h-10zM40,150h10v10h-10zM90,150h10v10h-10zM130,150h10v10h-10zM140,150h10v10h-10zM160,150h10v10h-10zM170,150h10v10h-10zM180,150h10v10h-10zM220,150h10v10h-10zM230,150h10v10h-10zM240,150h10v10h-10zM250,150h10v10h-10zM280,150h10v10h-10zM310,150h10v10h-10zM320,150h10v10h-10zM330,150h10v10h-10zM40,160h10v10h-10zM50,160h10v10h-10zM60,160h10v10h-10zM70,160h10v10h-10zM80,160h10v10h-10zM120,160h10v10h-10zM140,160h10v10h-10zM150,160h10v10h-10zM160,160h10v10h-10zM210,160h10v10h-10zM230,160h10v10h-10zM260,160h10v10h-10zM270,160h10v10h-10zM300,160h10v10h-10zM320,160h10v10h-10zM330,160h10v10h-10zM50,170h10v10h-10zM90,170h10v10h-10zM100,170h10v10h-10zM110,170h10v10h-10zM120,170h10v10h-10zM130,170h10v10h-10zM180,170h10v10h-10zM210,170h10v10h-10zM220,170h10v10h-10zM230,170h10v10h-10zM240,170h10v10h-10zM250,170h10v10h-10zM260,170h10v10h-10zM290,170h10v10h-10zM300,170h10v10h-10zM310,170h10v10h-10zM320,170h10v10h-10zM20,180h10v10h-10zM50,180h10v10h-10zM70,180h10v10h-10zM80,180h10v10h-10zM90,180h10v10h-10zM110,180h10v10h-10zM160,180h10v10h-10zM210,180h10v10h-10zM230,180h10v10h-10zM240,180h10v10h-10zM250,180h10v10h-10zM260,180h10v10h-10zM270,180h10v10h-10zM300,180h10v10h-10zM340,180h10v10h-10zM20,190h10v10h-10zM50,190h10v10h-10zM90,190h10v10h-10zM110,190h10v10h-10zM120,190h10v10h-10zM150,190h10v10h-10zM170,190h10v10h-10zM180,190h10v10h-10zM190,190h10v10h-10zM210,190h10v10h-10zM220,190h10v10h-10zM240,190h10v10h-10zM320,190h10v10h-10zM330,190h10v10h-10zM20,200h10v10h-10zM30,200h10v10h-10zM40,200h10v10h-10zM50,200h10v10h-10zM60,200h10v10h-10zM80,200h10v10h-10zM100,200h10v10h-10zM120,200h10v10h-10zM150,200h10v10h-10zM160,200h10v10h-10zM170,200h10v10h-10zM190,200h10v10h-10zM240,200h10v10h-10zM260,200h10v10h-10zM270,200h10v10h-10zM290,200h10v10h-10zM300,200h10v10h-10zM310,200h10v10h-10zM320,200h10v10h-10zM330,200h10v10h-10zM20,210h10v10h-10zM60,210h10v10h-10zM70,210h10v10h-10zM90,210h10v10h-10zM110,210h10v10h-10zM160,210h10v10h-10zM190,210h10v10h-10zM200,210h10v10h-10zM210,210h10v10h-10zM220,210h10v10h-10zM260,210h10v10h-10zM270,210h10v10h-10zM290,210h10v10h-10zM300,210h10v10h-10zM310,210h10v10h-10zM320,210h10v10h-10zM330,210h10v10h-10zM340,210h10v10h-10zM30,220h10v10h-10zM40,220h10v10h-10zM50,220h10v10h-10zM60,220h10v10h-10zM80,220h10v10h-10zM110,220h10v10h-10zM120,220h10v10h-10zM150,220h10v10h-10zM160,220h10v10h-10zM170,220h10v10h-10zM180,220h10v10h-10zM220,220h10v10h-10zM230,220h10v10h-10zM240,220h10v10h-10zM270,220h10v10h-10zM290,220h10v10h-10zM300,220h10v10h-10zM20,230h10v10h-10zM60,230h10v10h-10zM100,230h10v10h-10zM120,230h10v10h-10zM140,230h10v10h-10zM160,230h10v10h-10zM170,230h10v10h-10zM190,230h10v10h-10zM200,230h10v10h-10zM230,230h10v10h-10zM250,230h10v10h-10zM310,230h10v10h-10zM320,230h10v10h-10zM20,240h10v10h-10zM40,240h10v10h-10zM60,240h10v10h-10zM80,240h10v10h-10zM90,240h10v10h-10zM160,240h10v10h-10zM170,240h10v10h-10zM180,240h10v10h-10zM200,240h10v10h-10zM220,240h10v10h-10zM230,240h10v10h-10zM280,240h10v10h-10zM290,240h10v10h-10zM300,240h10v10h-10zM310,240h10v10h-10zM320,240h10v10h-10zM330,240h10v10h-10zM20,250h10v10h-10zM60,250h10v10h-10zM100,250h10v10h-10zM150,250h10v10h-10zM170,250h10v10h-10zM200,250h10v10h-10zM230,250h10v10h-10zM240,250h10v10h-10zM270,250h10v10h-10zM280,250h10v10h-10zM320,250h10v10h-10zM20,260h10v10h-10zM40,260h10v10h-10zM50,260h10v10h-10zM60,260h10v10h-10zM70,260h10v10h-10zM80,260h10v10h-10zM120,260h10v10h-10zM160,260h10v10h-10zM170,260h10v10h-10zM180,260h10v10h-10zM190,260h10v10h-10zM220,260h10v10h-10zM240,260h10v10h-10zM250,260h10v10h-10zM260,260h10v10h-10zM270,260h10v10h-10zM280,260h10v10h-10zM290,260h10v10h-10zM300,260h10v10h-10zM310,260h10v10h-10zM330,260h10v10h-10zM340,260h10v10h-10zM100,270h10v10h-10zM120,270h10v10h-10zM130,270h10v10h-10zM160,270h10v10h-10zM170,270h10v10h-10zM180,270h10v10h-10zM200,270h10v10h-10zM220,270h10v10h-10zM230,270h10v10h-10zM240,270h10v10h-10zM250,270h10v10h-10zM260,270h10v10h-10zM300,270h10v10h-10zM330,270h10v10h-10zM20,280h10v10h-10zM30,280h10v10h-10zM40,280h10v10h-10zM50,280h10v10h-10zM60,280h10v10h-10zM70,280h10v10h-10zM80,280h10v10h-10zM140,280h10v10h-10zM150,280h10v10h-10zM170,280h10v10h-10zM180,280h10v10h-10zM200,280h10v10h-10zM220,280h10v10h-10zM230,280h10v10h-10zM250,280h10v10h-10zM260,280h10v10h-10zM280,280h10v10h-10zM300,280h10v10h-10zM330,280h10v10h-10zM20,290h10v10h-10zM80,290h10v10h-10zM100,290h10v10h-10zM110,290h10v10h-10zM120,290h10v10h-10zM130,290h10v10h-10zM150,290h10v10h-10zM170,290h10v10h-10zM220,290h10v10h-10zM230,290h10v10h-10zM240,290h10v10h-10zM250,290h10v10h-10zM260,290h10v10h-10zM300,290h10v10h-10zM320,290h10v10h-10zM340,290h10v10h-10zM20,300h10v10h-10zM40,300h10v10h-10zM50,300h10v10h-10zM60,300h10v10h-10zM80,300h10v10h-10zM100,300h10v10h-10zM110,300h10v10h-10zM150,300h10v10h-10zM200,300h10v10h-10zM230,300h10v10h-10zM260,300h10v10h-10zM270,300h10v10h-10zM280,300h10v10h-10zM290,300h10v10h-10zM300,300h10v10h-10zM310,300h10v10h-10zM20,310h10v10h-10zM40,310h10v10h-10zM50,310h10v10h-10zM60,310h10v10h-10zM80,310h10v10h-10zM100,310h10v10h-10zM110,310h10v10h-10zM120,310h10v10h-10zM170,310h10v10h-10zM180,310h10v10h-10zM190,310h10v10h-10zM220,310h10v10h-10zM230,310h10v10h-10zM240,310h10v10h-10zM260,310h10v10h-10zM270,310h10v10h-10zM310,310h10v10h-10zM320,310h10v10h-10zM340,310h10v10h-10zM20,320h10v10h-10zM40,320h10v10h-10zM50,320h10v10h-10zM60,320h10v10h-10zM80,320h10v10h-10zM100,320h10v10h-10zM150,320h10v10h-10zM200,320h10v10h-10zM210,320h10v10h-10zM250,320h10v10h-10zM320,320h10v10h-10zM20,330h10v10h-10zM80,330h10v10h-10zM110,330h10v10h-10zM130,330h10v10h-10zM180,330h10v10h-10zM200,330h10v10h-10zM210,330h10v10h-10zM220,330h10v10h-10zM230,330h10v10h-10zM280,330h10v10h-10zM300,330h10v10h-10zM310,330h10v10h-10zM320,330h10v10h-10zM20,340h10v10h-10zM30,340h10v10h-10zM40,340h10v10h-10zM50,340h10v10h-10zM60,340h10v10h-10zM70,340h10v10h-10zM80,340h10v10h-10zM100,340h10v10h-10zM110,340h10v10h-10zM120,340h10v10h-10zM140,340h10v10h-10zM160,340h10v10h-10zM190,340h10v10h-10zM210,340h10v10h-10zM220,340h10v10h-10zM230,340h10v10h-10zM240,340h10v10h-10zM250,340h10v10h-10zM260,340h10v10h-10zM280,340h10v10h-10zM320,340h10v10h-10zM330,340h10v10h-10z"/></svg>